<svg viewBox="0 0 504 504" fill="none" xmlns="http://www.w3.org/2000/svg">
<path d="M252 48C364.666 48 456 139.334 456 252C456 265.392 454.708 278.483 452.244 291.155L259.291 206.61C244.828 156.582 198.687 120 144 120C122.232 120 101.818 125.796 84.2168 135.929C121.043 82.7965 182.458 48 252 48Z" fill="#FF4800"/>
<path fill-rule="evenodd" clip-rule="evenodd" d="M144 144C189.999 144 228.442 176.352 237.815 219.544L504 336L437.825 336.293C405.746 406.9 334.607 456 252 456C140.707 456 50.2297 366.879 48.041 256.109L0.5 216L61.0254 191.688C77.6683 163.166 108.596 144 144 144ZM144 192C130.745 192 120 202.745 120 216C120 229.255 130.745 240 144 240C157.255 240 168 229.255 168 216C168 202.745 157.255 192 144 192Z" fill="#5E50F5"/>
</svg>
